<svg width="30" height="30" viewBox="0 0 30 30" fill="none">
    <g clip-path="url(#clip0_17_390)">
        <path
            d="M15 30C23.2843 30 30 23.2843 30 15C30 6.71574 23.2843 0 15 0C6.71574 0 0 6.71574 0 15C0 23.2843 6.71574 30 15 30Z"
            fill="#34AADF" />
        <path
            d="M6.24277 14.8699C6.24277 14.8699 13.7428 11.7919 16.3439 10.708C17.341 10.2745 20.7225 8.8872 20.7225 8.8872C20.7225 8.8872 22.2832 8.2803 22.1532 9.75426C22.1098 10.3612 21.763 12.4855 21.4162 14.7832C20.8959 18.0346 20.3323 21.5895 20.3323 21.5895C20.3323 21.5895 20.2456 22.5866 19.5087 22.76C18.7717 22.9334 17.5578 22.1531 17.341 21.9797C17.1676 21.8497 14.0896 19.8988 12.9624 18.945C12.6589 18.6849 12.3121 18.1647 13.0057 17.5577C14.5665 16.1271 16.4306 14.3497 17.5578 13.2225C18.078 12.7022 18.5982 11.4884 16.4306 12.9623C13.3526 15.0866 10.3179 17.0809 10.3179 17.0809C10.3179 17.0809 9.62426 17.5144 8.32369 17.1242C7.02307 16.7341 5.50573 16.2138 5.50573 16.2138C5.50573 16.2138 4.46533 15.5635 6.24277 14.8699Z"
            fill="white" />
    </g>
    <defs>
        <clipPath id="clip0_17_390">
            <rect width="30" height="30" fill="white" />
        </clipPath>
    </defs>
</svg>