<svg width="24" height="18" fill="none">
    <mask id="path-1-inside-1_17_402" fill="white">
        <path
            d="M18.5608 10.228C17.457 10.228 16.4227 9.73369 15.483 8.92908L15.7118 7.79323L15.7218 7.75114C15.9255 6.54178 16.5719 4.51182 18.5608 4.51182C20.0523 4.51182 21.2655 5.79498 21.2655 7.37248C21.2605 8.94479 20.0474 10.228 18.5608 10.228ZM18.5608 1.6144C16.02 1.6144 14.0511 3.36026 13.2507 6.23144C12.0275 4.29099 11.1027 1.9615 10.5608 0H7.8262V7.52499C7.8262 9.00793 6.68261 10.2173 5.28049 10.2173C3.87836 10.2173 2.73491 9.00793 2.73491 7.52499V0H3.11866e-05V7.52499C-0.00991767 10.6066 2.36176 13.1359 5.27531 13.1359C8.189 13.1359 10.5607 10.6066 10.5607 7.52499V6.26301C11.0926 7.43562 11.7439 8.61874 12.5345 9.67055L10.8589 18H13.6582L14.8713 11.958C15.9353 12.6784 17.1585 13.1307 18.5606 13.1307C21.5587 13.1307 24 10.533 24 7.36196C24 4.19629 21.5588 1.6144 18.5608 1.6144Z" />
    </mask>
    <path
        d="M15.483 8.92908L5.67993 6.9542L4.52083 12.7078L8.97905 16.5251L15.483 8.92908ZM15.7118 7.79323L5.98003 5.49265L5.94168 5.6549L5.90875 5.81835L15.7118 7.79323ZM15.7218 7.75114L25.4535 10.0517L25.5286 9.73424L25.5828 9.41252L15.7218 7.75114ZM21.2655 7.37248L31.2655 7.40454L31.2655 7.38851V7.37248H21.2655ZM13.2507 6.23144L4.79117 11.564L16.8239 30.6528L22.8834 8.91681L13.2507 6.23144ZM10.5608 0L20.1998 -2.66285L18.1728 -10H10.5608V0ZM7.8262 0V-10H-2.1738V0H7.8262ZM2.73491 0H12.7349V-10H2.73491V0ZM3.11866e-05 0V-10H-9.99997V0H3.11866e-05ZM3.11866e-05 7.52499L9.99998 7.55727L10 7.54113V7.52499H3.11866e-05ZM10.5607 6.26301L19.6675 2.13187L0.560679 6.26301H10.5607ZM12.5345 9.67055L22.3381 11.6428L23.2225 7.24659L20.5282 3.66206L12.5345 9.67055ZM10.8589 18L1.05529 16.0278L-1.35319 28H10.8589V18ZM13.6582 18V28H21.85L23.4626 19.9685L13.6582 18ZM14.8713 11.958L20.478 3.67752L8.02692 -4.75301L5.06698 9.98948L14.8713 11.958ZM18.5608 0.227953C20.5915 0.227953 21.7793 1.15531 21.9869 1.3331L8.97905 16.5251C11.0661 18.3121 14.3224 20.228 18.5608 20.228V0.227953ZM25.286 10.904L25.5149 9.76812L5.90875 5.81835L5.67993 6.9542L25.286 10.904ZM25.4436 10.0938L25.4535 10.0517L5.98998 5.45056L5.98003 5.49265L25.4436 10.0938ZM25.5828 9.41252C25.5694 9.49169 25.5375 9.6604 25.4568 9.90192C25.3819 10.1264 25.2016 10.6064 24.8123 11.1949C24.4139 11.7973 23.6913 12.6681 22.5088 13.3883C21.2532 14.1531 19.8611 14.5118 18.5608 14.5118V-5.48818C13.4357 -5.48818 9.94639 -2.58292 8.13135 0.161073C6.57448 2.51477 6.05858 4.91544 5.86073 6.08977L25.5828 9.41252ZM18.5608 14.5118C14.0088 14.5118 11.2655 10.7824 11.2655 7.37248H31.2655C31.2655 0.807525 26.0957 -5.48818 18.5608 -5.48818V14.5118ZM11.2656 7.34042C11.2764 3.95623 13.9991 0.227953 18.5608 0.227953V20.228C26.0956 20.228 31.2445 13.9334 31.2655 7.40454L11.2656 7.34042ZM18.5608 -8.3856C10.4311 -8.3856 5.30028 -2.48832 3.61803 3.54607L22.8834 8.91681C22.8635 8.98838 22.6568 9.65632 21.8346 10.3751C20.9285 11.1672 19.7196 11.6144 18.5608 11.6144V-8.3856ZM21.7103 0.8989C21.1204 -0.0369217 20.5436 -1.41837 20.1998 -2.66285L0.921869 2.66285C1.66183 5.34137 2.93472 8.61891 4.79117 11.564L21.7103 0.8989ZM10.5608 -10H7.8262V10H10.5608V-10ZM-2.1738 0V7.52499H17.8262V0H-2.1738ZM-2.1738 7.52499C-2.1738 4.01977 0.639828 0.21729 5.28049 0.21729V20.2173C12.7254 20.2173 17.8262 13.9961 17.8262 7.52499H-2.1738ZM5.28049 0.21729C9.92181 0.21729 12.7349 4.02046 12.7349 7.52499H-7.26509C-7.26509 13.9954 -2.16508 20.2173 5.28049 20.2173V0.21729ZM12.7349 7.52499V0H-7.26509V7.52499H12.7349ZM2.73491 -10H3.11866e-05V10H2.73491V-10ZM-9.99997 0V7.52499H10V0H-9.99997ZM-9.99992 7.4927C-10.0259 15.5422 -3.72475 23.1359 5.27531 23.1359V3.13589C8.44827 3.13589 10.0061 5.67103 9.99998 7.55727L-9.99992 7.4927ZM5.27531 23.1359C14.2795 23.1359 20.5607 15.5442 20.5607 7.52499H0.560679C0.560679 5.66902 2.09853 3.13589 5.27531 3.13589V23.1359ZM20.5607 7.52499V6.26301H0.560679V7.52499H20.5607ZM1.45389 10.3942C2.19372 12.0251 3.19402 13.8872 4.54091 15.679L20.5282 3.66206C20.2938 3.35033 19.9915 2.84618 19.6675 2.13187L1.45389 10.3942ZM2.73094 7.69834L1.05529 16.0278L20.6625 19.9722L22.3381 11.6428L2.73094 7.69834ZM10.8589 28H13.6582V8H10.8589V28ZM23.4626 19.9685L24.6757 13.9264L5.06698 9.98948L3.85388 16.0315L23.4626 19.9685ZM9.26469 20.2384C11.7221 21.9023 14.8656 23.1307 18.5606 23.1307V3.1307C18.9563 3.1307 19.3591 3.19784 19.7298 3.32047C20.0893 3.4394 20.3398 3.58397 20.478 3.67752L9.26469 20.2384ZM18.5606 23.1307C27.6367 23.1307 34 15.4838 34 7.36196H14C14 5.58209 15.4807 3.1307 18.5606 3.1307V23.1307ZM34 7.36196C34 -0.797198 27.5966 -8.3856 18.5608 -8.3856V11.6144C15.5211 11.6144 14 9.18978 14 7.36196H34Z"
        fill="#0F9E1D" mask="url(#path-1-inside-1_17_402)" />
</svg>